<?xml version="1.0" encoding="UTF-8"?>
<svg version="1.1" xmlns="http://www.w3.org/2000/svg" width="500" height="500">
<path d="M0 0 C165 0 330 0 500 0 C500 165 500 330 500 500 C335 500 170 500 0 500 C0 335 0 170 0 0 Z " fill="#727272" transform="translate(0,0)"/>
<path d="M0 0 C1.98 0 3.96 0 6 0 C6.33 20.13 6.66 40.26 7 61 C14.26 61.66 21.52 62.32 29 63 C32.9645357 63.84351823 36.26176799 64.65708674 40 66 C41.16789063 66.38800781 42.33578125 66.77601562 43.5390625 67.17578125 C59.86265023 72.78297975 74.85326441 80.79826091 88 92 C89.31871094 93.10988281 89.31871094 93.10988281 90.6640625 94.2421875 C109.07828615 110.26199197 121.68467727 129.74044444 129 153 C129.23138672 153.72638672 129.46277344 154.45277344 129.70117188 155.20117188 C130.43672857 157.56332548 131.12985818 159.93455404 131.8125 162.3125 C132.03172119 163.02156494 132.25094238 163.73062988 132.47680664 164.46118164 C134.80045476 172.96372786 134 179.49529587 134 189 C153.8 189 173.6 189 194 189 C194 190.98 194 192.96 194 195 C174.2 195 154.4 195 134 195 C134 199.95 134 204.9 134 210 C133.14231554 214.45995917 132.19949015 218.64610597 131 223 C130.53013672 224.91232422 130.53013672 224.91232422 130.05078125 226.86328125 C128.56523654 232.86769739 127.11433459 238.68820381 124.02734375 244.09375 C122.86204402 246.17449644 122.86204402 246.17449644 121.69140625 249.2109375 C119.88981958 253.464637 117.51673946 257.2615608 115 261.125 C114.51869629 261.86492187 114.03739258 262.60484375 113.54150391 263.3671875 C96.16983218 289.56301357 68.05863299 312.47493455 36.78417969 319.49755859 C31.87663207 320.4646403 26.94168637 321.23094681 22 322 C20.82630859 322.28617187 20.82630859 322.28617187 19.62890625 322.578125 C15.47013145 323.24550639 11.21198359 323 7 323 C7 342.8 7 362.6 7 383 C4.69 383 2.38 383 0 383 C0 363.2 0 343.4 0 323 C-2.97 323 -5.94 323 -9 323 C-11.7578125 322.66796875 -11.7578125 322.66796875 -14.125 322.1875 C-15.05183594 322.00058594 -15.97867188 321.81367188 -16.93359375 321.62109375 C-18.45146484 321.31365234 -18.45146484 321.31365234 -20 321 C-21.71896484 320.70802734 -21.71896484 320.70802734 -23.47265625 320.41015625 C-55.75243222 314.67379228 -84.31430269 294.97516943 -103.29418945 268.48120117 C-107.21056741 262.85200565 -110.7337523 257.02999576 -114 251 C-114.38671875 250.319375 -114.7734375 249.63875 -115.171875 248.9375 C-123.68958836 233.21249072 -127 212.43443289 -127 195 C-147.13 195 -167.26 195 -188 195 C-188 193.02 -188 191.04 -188 189 C-167.87 189 -147.74 189 -127 189 C-126.67 182.4 -126.34 175.8 -126 169 C-122.12433891 148.76043654 -114.46543669 130.54847561 -102 114 C-101.39542969 113.19046875 -100.79085937 112.3809375 -100.16796875 111.546875 C-81.23374213 87.02107433 -51.84812725 67.3627369 -20.70922852 62.94189453 C-13.69063226 62.05874306 -7.16035105 62 0 62 C0 41.54 0 21.08 0 0 Z " fill="#727272" transform="translate(247,16)"/>
<path d="M0 0 C165 0 330 0 500 0 C500 26.07 500 52.14 500 79 C335 79 170 79 0 79 C0 52.93 0 26.86 0 0 Z " fill="#020202" transform="translate(0,421)"/>
<path d="M0 0 C0 19.8 0 39.6 0 60 C-5.28 61.32 -10.56 62.64 -16 64 C-18.94731427 65.11392602 -21.51036416 66.12346104 -24.25 67.5625 C-25.23021118 68.06740967 -25.23021118 68.06740967 -26.23022461 68.58251953 C-40.38858885 76.26567435 -50.68961224 89.20314929 -56.1875 104.25 C-57.31735411 109.46471129 -57.66816356 114.68188438 -58 120 C-57.34 120 -56.68 120 -56 120 C-56 122.31 -56 124.62 -56 127 C-56.99 127 -57.98 127 -59 127 C-56.14392811 146.55569221 -49.04496708 162.54432762 -33.1875 175.25 C-22.30223474 182.79086869 -12.41516753 185.01885166 1 188 C1 207.8 1 227.6 1 248 C-13.20101351 248 -13.20101351 248 -17.953125 246.546875 C-20.39702967 245.89392337 -22.79973434 245.66653635 -25.3125 245.375 C-47.11393015 241.88898452 -67.33154379 227.77611532 -83 213 C-83.67675781 212.38769531 -84.35351562 211.77539062 -85.05078125 211.14453125 C-102.14512739 195.07790131 -112.92472223 172.45942873 -117.8125 149.875 C-118.03196289 148.87339844 -118.25142578 147.87179688 -118.47753906 146.83984375 C-118.67702148 145.85886719 -118.87650391 144.87789062 -119.08203125 143.8671875 C-119.25968018 143.00206543 -119.4373291 142.13694336 -119.62036133 141.24560547 C-120.17223245 136.52755096 -120 131.75022106 -120 127 C-100.2 127 -80.4 127 -60 127 C-60 125.02 -60 123.04 -60 121 C-79.8 121 -99.6 121 -120 121 C-120 107 -120 107 -118 101 C-117.73697146 99.37705792 -117.48864846 97.75170585 -117.25 96.125 C-112.02745445 66.79839805 -92.31632114 39.39619539 -68.31640625 22.32421875 C-67.02793229 21.43873627 -65.73499502 20.55971045 -64.4375 19.6875 C-63.84888184 19.29111328 -63.26026367 18.89472656 -62.65380859 18.48632812 C-54.22230253 12.99003001 -45.23995498 9.09420001 -35.75 5.8125 C-34.74364502 5.46445313 -33.73729004 5.11640625 -32.70043945 4.7578125 C-21.52946487 1.01172803 -11.87301099 0 0 0 Z " fill="#727272" transform="translate(246,84)"/>
<path d="M0 0 C1.32451172 0.01353516 1.32451172 0.01353516 2.67578125 0.02734375 C3.67158203 0.04474609 3.67158203 0.04474609 4.6875 0.0625 C4.6875 1.0525 4.6875 2.0425 4.6875 3.0625 C6.9975 3.0625 9.3075 3.0625 11.6875 3.0625 C11.6875 2.0725 11.6875 1.0825 11.6875 0.0625 C24.75527857 -0.8284849 38.41900961 4.64145728 48.32421875 13.01171875 C61.0234521 24.34202608 68.92941143 36.13354256 71.6875 53.0625 C71.8125 56.625 71.8125 56.625 71.6875 59.0625 C70.3675 59.0625 69.0475 59.0625 67.6875 59.0625 C67.6875 61.3725 67.6875 63.6825 67.6875 66.0625 C69.0075 66.0625 70.3275 66.0625 71.6875 66.0625 C72.35210218 73.20697341 69.89663 79.34236027 67.6875 86.0625 C66.99647277 88.38997085 66.3401215 90.72393961 65.6875 93.0625 C65.0275 93.0625 64.3675 93.0625 63.6875 93.0625 C63.48125 93.7225 63.275 94.3825 63.0625 95.0625 C61.1561658 99.22177462 58.59110284 102.54417043 55.6875 106.0625 C55.15640625 106.71476562 54.6253125 107.36703125 54.078125 108.0390625 C45.71125292 117.33147353 31.4782874 125.49452615 18.859375 126.2265625 C16.45773032 126.24668801 14.08466954 126.20020974 11.6875 126.0625 C11.6875 124.7425 11.6875 123.4225 11.6875 122.0625 C9.3775 122.0625 7.0675 122.0625 4.6875 122.0625 C4.6875 123.7125 4.6875 125.3625 4.6875 127.0625 C-12.90665698 125.59632025 -26.75969947 119.79937567 -38.90234375 106.94140625 C-42.54289413 102.59280718 -45.49723821 97.97390779 -48.3125 93.0625 C-49.08013672 91.87720703 -49.08013672 91.87720703 -49.86328125 90.66796875 C-53.95965982 83.30332048 -55.98337526 74.44844077 -55.3125 66.0625 C-54.3225 66.0625 -53.3325 66.0625 -52.3125 66.0625 C-52.3125 63.7525 -52.3125 61.4425 -52.3125 59.0625 C-52.9725 59.0625 -53.6325 59.0625 -54.3125 59.0625 C-55.22827623 44.48639504 -50.26208758 32.2442073 -40.80078125 21.10546875 C-30.27059527 10.12463287 -15.80209303 -0.21069457 0 0 Z " fill="#010101" transform="translate(242.3125,144.9375)"/>
<path d="M0 0 C0.33 0 0.66 0 1 0 C2 5 2 5 2 19 C-17.8 19 -37.6 19 -58 19 C-58 20.98 -58 22.96 -58 25 C-38.2 25 -18.4 25 2 25 C2 52.72908558 -8.5606602 81.10445471 -27 102 C-27.70898438 102.82886719 -28.41796875 103.65773438 -29.1484375 104.51171875 C-38.2331145 114.91925223 -48.15910092 122.98490844 -60 130 C-60.59973633 130.36013184 -61.19947266 130.72026367 -61.81738281 131.09130859 C-78.93116541 141.24082194 -100.09481621 147 -120 147 C-120 126.87 -120 106.74 -120 86 C-121.98 86 -123.96 86 -126 86 C-126 84.35 -126 82.7 -126 81 C-123.69 81 -121.38 81 -119 81 C-119 82.32 -119 83.64 -119 85 C-100.86457483 83.20255401 -84.83801042 76.27931218 -73 62 C-71.26955544 59.34120536 -69.68595186 56.66857655 -68.19140625 53.87109375 C-67.79824219 53.25363281 -67.40507812 52.63617188 -67 52 C-66.34 52 -65.68 52 -65 52 C-64.9175 51.113125 -64.835 50.22625 -64.75 49.3125 C-64.07139445 44.41256878 -62.4178723 39.81266406 -60.921875 35.11328125 C-59.91267584 31.70509594 -59.32830797 28.52931068 -59 25 C-60.32 25 -61.64 25 -63 25 C-63 22.69 -63 20.38 -63 18 C-61.68 18 -60.36 18 -59 18 C-58.67 16.68 -58.34 15.36 -58 14 C-58 15.32 -58 16.64 -58 18 C-38.53 18 -19.06 18 1 18 C0.505 13.545 0.505 13.545 0 9 C-0.10330915 5.98750529 -0.04787308 3.01600414 0 0 Z " fill="#727272" transform="translate(373,186)"/>
<path d="M0 0 C1.98 0 3.96 0 6 0 C6.33 20.13 6.66 40.26 7 61 C14.26 61.66 21.52 62.32 29 63 C32.9645357 63.84351823 36.26176799 64.65708674 40 66 C41.16789063 66.38800781 42.33578125 66.77601562 43.5390625 67.17578125 C59.86265023 72.78297975 74.85326441 80.79826091 88 92 C89.31871094 93.10988281 89.31871094 93.10988281 90.6640625 94.2421875 C109.07828615 110.26199197 121.68467727 129.74044444 129 153 C129.23138672 153.72638672 129.46277344 154.45277344 129.70117188 155.20117188 C130.43672857 157.56332548 131.12985818 159.93455404 131.8125 162.3125 C132.03172119 163.02156494 132.25094238 163.73062988 132.47680664 164.46118164 C134.80045476 172.96372786 134 179.49529587 134 189 C153.8 189 173.6 189 194 189 C194 190.98 194 192.96 194 195 C174.2 195 154.4 195 134 195 C134 199.95 134 204.9 134 210 C133.14231554 214.45995917 132.19949015 218.64610597 131 223 C130.53013672 224.91232422 130.53013672 224.91232422 130.05078125 226.86328125 C128.56523654 232.86769739 127.11433459 238.68820381 124.02734375 244.09375 C122.86204402 246.17449644 122.86204402 246.17449644 121.69140625 249.2109375 C119.88981958 253.464637 117.51673946 257.2615608 115 261.125 C114.51869629 261.86492187 114.03739258 262.60484375 113.54150391 263.3671875 C96.16983218 289.56301357 68.05863299 312.47493455 36.78417969 319.49755859 C31.87663207 320.4646403 26.94168637 321.23094681 22 322 C20.82630859 322.28617187 20.82630859 322.28617187 19.62890625 322.578125 C15.47013145 323.24550639 11.21198359 323 7 323 C7 342.8 7 362.6 7 383 C4.69 383 2.38 383 0 383 C0 363.2 0 343.4 0 323 C-2.97 323 -5.94 323 -9 323 C-11.7578125 322.66796875 -11.7578125 322.66796875 -14.125 322.1875 C-15.05183594 322.00058594 -15.97867188 321.81367188 -16.93359375 321.62109375 C-18.45146484 321.31365234 -18.45146484 321.31365234 -20 321 C-21.71896484 320.70802734 -21.71896484 320.70802734 -23.47265625 320.41015625 C-55.75243222 314.67379228 -84.31430269 294.97516943 -103.29418945 268.48120117 C-107.21056741 262.85200565 -110.7337523 257.02999576 -114 251 C-114.38671875 250.319375 -114.7734375 249.63875 -115.171875 248.9375 C-123.68958836 233.21249072 -127 212.43443289 -127 195 C-147.13 195 -167.26 195 -188 195 C-188 193.02 -188 191.04 -188 189 C-167.87 189 -147.74 189 -127 189 C-126.67 182.4 -126.34 175.8 -126 169 C-122.12433891 148.76043654 -114.46543669 130.54847561 -102 114 C-101.39542969 113.19046875 -100.79085937 112.3809375 -100.16796875 111.546875 C-81.23374213 87.02107433 -51.84812725 67.3627369 -20.70922852 62.94189453 C-13.69063226 62.05874306 -7.16035105 62 0 62 C0 41.54 0 21.08 0 0 Z M-19.25 69.1875 C-19.97179443 69.3213208 -20.69358887 69.4551416 -21.43725586 69.59301758 C-53.57015111 75.90565268 -82.63690532 96.03882473 -101 123 C-109.46254497 136.18794373 -116.10580645 150.67068581 -119.0625 166.125 C-119.21847656 166.93195313 -119.37445313 167.73890625 -119.53515625 168.5703125 C-119.68855469 169.37210937 -119.84195313 170.17390625 -120 171 C-120.33 172.65 -120.66 174.3 -121 176 C-121 180.29 -121 184.58 -121 189 C-101.2 189 -81.4 189 -61 189 C-61 190.98 -61 192.96 -61 195 C-80.8 195 -100.6 195 -121 195 C-121.1427886 203.63068484 -121.1427886 203.63068484 -120.1171875 211.796875 C-119.82581909 213.25275024 -119.82581909 213.25275024 -119.52856445 214.73803711 C-119.31288818 215.73198486 -119.09721191 216.72593262 -118.875 217.75 C-118.6483667 218.80131104 -118.4217334 219.85262207 -118.18823242 220.93579102 C-111.46486922 250.79064333 -91.93843001 279.42626202 -66 296 C-56.99347806 301.58915368 -47.84914103 306.05291961 -38 310 C-37.26265625 310.31839844 -36.5253125 310.63679687 -35.765625 310.96484375 C-30.91725651 312.97831909 -26.01278271 313.79625527 -20.83203125 314.5703125 C-18.20824214 314.96840464 -15.60228203 315.47954359 -13 316 C-8.71 316 -4.42 316 0 316 C0 296.2 0 276.4 0 256 C1.98 256 3.96 256 6 256 C6 276.13 6 296.26 6 317 C43.74634051 313.85447162 74.29391391 300.38018899 99.6953125 271.734375 C103.12524004 267.66496944 106.16670388 263.50469229 109 259 C109.35449219 258.43716309 109.70898438 257.87432617 110.07421875 257.29443359 C118.81007063 243.21048126 123.84542671 228.24945667 127 212 C127.18949219 211.11828125 127.37898437 210.2365625 127.57421875 209.328125 C128.18056593 204.58860389 128 199.77814999 128 195 C108.2 195 88.4 195 68 195 C68 193.02 68 191.04 68 189 C87.8 189 107.6 189 128 189 C128.17966896 177.34457961 128.17966896 177.34457961 126.25 166.375 C126.06663086 165.65900635 125.88326172 164.9430127 125.69433594 164.20532227 C125.15183302 162.12999271 124.58173192 160.06462892 124 158 C123.566875 156.42412109 123.566875 156.42412109 123.125 154.81640625 C113.32583436 122.57540143 89.45668916 96.49824775 60.14331055 80.69262695 C42.88659228 71.82408256 25.35971029 68 6 68 C6 87.8 6 107.6 6 128 C4.02 128 2.04 128 0 128 C0 108.2 0 88.4 0 68 C-9.76076575 67.97835962 -9.76076575 67.97835962 -19.25 69.1875 Z " fill="#060606" transform="translate(247,16)"/>
<path d="M0 0 C10.56 0 21.12 0 32 0 C32 1.98 32 3.96 32 6 C33.98 6 35.96 6 38 6 C38 16.56 38 27.12 38 38 C36.02 38 34.04 38 32 38 C32 39.98 32 41.96 32 44 C21.44 44 10.88 44 0 44 C0 42.02 0 40.04 0 38 C-1.98 38 -3.96 38 -6 38 C-6 27.44 -6 16.88 -6 6 C-4.02 6 -2.04 6 0 6 C0 4.02 0 2.04 0 0 Z " fill="#EDEDED" transform="translate(206,185)"/>
<path d="M0 0 C4.29 0 8.58 0 13 0 C13 1.98 13 3.96 13 6 C14.98 6 16.96 6 19 6 C19 7.98 19 9.96 19 12 C20.65 12 22.3 12 24 12 C24 10.35 24 8.7 24 7 C26.31 7 28.62 7 31 7 C31 4.69 31 2.38 31 0 C35.29 0 39.58 0 44 0 C44 14.52 44 29.04 44 44 C39.71 44 35.42 44 31 44 C31 35.75 31 27.5 31 19 C29.02 19 27.04 19 25 19 C25 23.29 25 27.58 25 32 C23.02 32 21.04 32 19 32 C19 27.71 19 23.42 19 19 C16.69 19 14.38 19 12 19 C12 27.25 12 35.5 12 44 C8.04 44 4.08 44 0 44 C0 29.48 0 14.96 0 0 Z " fill="#F4F4F4" transform="translate(250,185)"/>
<path d="M0 0 C7.26944991 2.10159453 12.74104096 6.07786133 16.42578125 12.74609375 C18.53970102 18.10198913 18.52479351 23.18675656 17.796875 28.828125 C16.21493178 32.12384003 14.80485345 33.70244503 11.48046875 35.28515625 C6.13426054 36.92057951 0.91831931 37.13439311 -4.234375 34.8125 C-10.21658432 31.02376743 -15.92795997 26.05378513 -17.703125 18.953125 C-18.26827261 12.94843165 -18.23865293 8.07354477 -14.703125 2.953125 C-9.71538529 -1.95572252 -6.53758399 -1.2720186 0 0 Z " fill="#040404" transform="translate(404.703125,439.046875)"/>
<path d="M0 0 C4.21004826 3.73892381 7.60066926 8.70141871 8.28515625 14.35546875 C8.47976195 19.94826736 7.98779209 24.21953265 5 29 C0.37811284 31.53103345 -4.84037034 31.56927613 -10 31 C-17.10791931 28.79409401 -22.79179709 24.65902388 -26.4375 18.125 C-29.29855736 11.67841152 -28.43887567 5.54645575 -26 -1 C-24.40323406 -3.2810942 -23.46139433 -3.85499035 -20.8125 -4.6875 C-12.37410998 -5.62509889 -7.20286306 -4.7315359 0 0 Z " fill="#030303" transform="translate(64,444)"/>
<path d="M0 0 C2.83439137 -0.10901505 5.66450203 -0.18777904 8.5 -0.25 C9.29148438 -0.28351563 10.08296875 -0.31703125 10.8984375 -0.3515625 C16.68719894 -0.44646023 21.23574938 0.57262698 26 4 C28.6803257 8.02048854 28.80395376 11.27573564 28 16 C25.45798563 19.58872618 23.95903639 20.76476466 19.6875 21.8125 C18.800625 21.874375 17.91375 21.93625 17 22 C19.09397355 26.02687221 20.92142281 29.0896302 24.3125 32.125 C25.199375 33.07375 26.08625 34.0225 27 35 C26.875 37.875 26.875 37.875 26 40 C25.01 40 24.02 40 23 40 C22.74476563 39.42121094 22.48953125 38.84242188 22.2265625 38.24609375 C20.47566814 35.03983815 17.99703452 32.70103747 15.4609375 30.09765625 C13.68195069 27.54333561 13.71374575 26.04807761 14 23 C10.88274079 24.38025574 10.88274079 24.38025574 8 27 C7.47291252 29.29690152 7.37437096 31.45274804 7.27734375 33.8046875 C6.871372 37.01815401 5.23825083 38.76174917 3 41 C2.34 40.67 1.68 40.34 1 40 C1.09355263 35.2124632 1.19964984 30.42543106 1.31738281 25.63842773 C1.35566618 24.00992451 1.39052024 22.38133691 1.421875 20.75268555 C1.46754002 18.41163986 1.52553077 16.0711747 1.5859375 13.73046875 C1.59748871 13.00224411 1.60903992 12.27401947 1.62094116 11.52372742 C1.72878512 7.83038626 1.89884276 6.15173586 4 3 C2.35 2.67 0.7 2.34 -1 2 C-0.67 1.34 -0.34 0.68 0 0 Z " fill="#090909" transform="translate(185,436)"/>
<path d="M0 0 C5.94 0 11.88 0 18 0 C18 9.9 18 19.8 18 30 C12.06 30 6.12 30 0 30 C0 20.1 0 10.2 0 0 Z " fill="#000000" transform="translate(213,192)"/>
<path d="M0 0 C1.70137352 0.97122942 3.35191529 2.03036432 4.9921875 3.1015625 C3.87423397 6.1759347 2.54233089 8.92871662 0.8671875 11.7265625 C-1.25063397 14.89516425 -1.25063397 14.89516425 -1.0078125 18.1015625 C-0.0796875 18.5140625 0.8484375 18.9265625 1.8046875 19.3515625 C6.43036537 21.89115035 6.43036537 21.89115035 7.9921875 25.1015625 C8.84362874 31.70023212 8.84362874 31.70023212 6.8671875 34.953125 C5.4921875 36.6015625 5.4921875 36.6015625 2.9921875 39.1015625 C2.3321875 38.7715625 1.6721875 38.4415625 0.9921875 38.1015625 C1.5078125 37.5859375 2.0234375 37.0703125 2.5546875 36.5390625 C4.25796586 34.07827264 4.25796586 34.07827264 4.1796875 30.6640625 C2.71242726 26.26228177 1.1845677 25.323351 -2.75 23.14453125 C-4.87465631 22.16307237 -6.97420427 21.39457909 -9.1953125 20.6640625 C-13.64959862 19.09144472 -15.52343739 17.13867205 -18.0078125 13.1015625 C-18.6328125 9.5390625 -18.6328125 9.5390625 -18.0078125 6.1015625 C-13.36676693 0.30025553 -7.46850735 -3.34193909 0 0 Z " fill="#0B0B0B" transform="translate(356.0078125,436.8984375)"/>
<path d="M0 0 C4.29 0 8.58 0 13 0 C14.04274465 5.21372324 13.68754416 6.93736752 12.0625 11.8125 C11.68222656 12.97394531 11.30195313 14.13539063 10.91015625 15.33203125 C10.60980469 16.21246094 10.30945313 17.09289062 10 18 C8.52093108 18.02689216 7.04172517 18.04634621 5.5625 18.0625 C4.32693359 18.07990234 4.32693359 18.07990234 3.06640625 18.09765625 C1 18 1 18 0 17 C-0.07325168 14.13732433 -0.09238205 11.299281 -0.0625 8.4375 C-0.05798828 7.63119141 -0.05347656 6.82488281 -0.04882812 5.99414062 C-0.03700518 3.99606244 -0.01906914 1.99802217 0 0 Z " fill="#000000" transform="translate(274,438)"/>
<path d="M0 0 C4.29 0 8.58 0 13 0 C14.04274465 5.21372324 13.68754416 6.93736752 12.0625 11.8125 C11.68222656 12.97394531 11.30195313 14.13539063 10.91015625 15.33203125 C10.60980469 16.21246094 10.30945313 17.09289062 10 18 C8.52093108 18.02689216 7.04172517 18.04634621 5.5625 18.0625 C4.32693359 18.07990234 4.32693359 18.07990234 3.06640625 18.09765625 C1 18 1 18 0 17 C-0.07325168 14.13732433 -0.09238205 11.299281 -0.0625 8.4375 C-0.05798828 7.63119141 -0.05347656 6.82488281 -0.04882812 5.99414062 C-0.03700518 3.99606244 -0.01906914 1.99802217 0 0 Z " fill="#000000" transform="translate(162,438)"/>
<path d="M0 0 C0.66 0.33 1.32 0.66 2 1 C1.7525 2.0725 1.505 3.145 1.25 4.25 C0.5962348 7.91788194 0.5962348 7.91788194 2.51171875 10.015625 C6.17626194 12.93805505 10.31723743 14.55711888 14.59960938 16.35546875 C18.37440654 18.01233106 21.04185222 19.2845401 23 23 C23.85144124 29.59866962 23.85144124 29.59866962 21.875 32.8515625 C20.5 34.5 20.5 34.5 18 37 C17.34 36.67 16.68 36.34 16 36 C16.515625 35.484375 17.03125 34.96875 17.5625 34.4375 C19.26577836 31.97671014 19.26577836 31.97671014 19.1875 28.5625 C17.72023976 24.16071927 16.1923802 23.2217885 12.2578125 21.04296875 C10.13315619 20.06150987 8.03360823 19.29301659 5.8125 18.5625 C1.35821388 16.98988222 -0.51562489 15.03710955 -3 11 C-3.54531303 7.04648052 -3.60248778 4.97904264 -1.5 1.5625 C-1.005 1.046875 -0.51 0.53125 0 0 Z " fill="#EDEDED" transform="translate(341,439)"/>
<path d="M0 0 C0.66 0 1.32 0 2 0 C2.00410889 0.87736816 2.00821777 1.75473633 2.01245117 2.65869141 C2.03953349 5.93586877 2.08871898 9.21120459 2.15258789 12.48779297 C2.17568526 13.90173937 2.19014419 15.31585579 2.19555664 16.72998047 C1.88882779 25.80895592 1.88882779 25.80895592 5.19921875 33.9375 C8.38118293 36.28070375 9.73149249 36.66459973 13.625 36.375 C14.56601563 36.32085937 15.50703125 36.26671875 16.4765625 36.2109375 C17.30929688 36.14132812 18.14203125 36.07171875 19 36 C19.99 36 20.98 36 22 36 C17.38072498 39.66356295 13.9210173 40.50178113 8 40 C3.38137213 37.42422676 -0.30640263 35.0807921 -2 30 C-2.23631727 25.31615195 -2.18517748 20.6266685 -2.1875 15.9375 C-2.19974609 14.63232422 -2.21199219 13.32714844 -2.22460938 11.98242188 C-2.22654297 10.73912109 -2.22847656 9.49582031 -2.23046875 8.21484375 C-2.23663208 6.49962524 -2.23663208 6.49962524 -2.24291992 4.74975586 C-2 2 -2 2 0 0 Z " fill="#DFDFDF" transform="translate(85,438)"/>
<path d="M0 0 C0.99 0.33 1.98 0.66 3 1 C2.34 1 1.68 1 1 1 C1.02094727 2.00377686 1.04189453 3.00755371 1.06347656 4.04174805 C1.13606694 7.77825566 1.18186811 11.51470137 1.21972656 15.25170898 C1.23979892 16.86672458 1.2670633 18.48166789 1.30175781 20.09643555 C1.35047215 22.42254501 1.37301154 24.74769093 1.390625 27.07421875 C1.41127014 27.79212082 1.43191528 28.51002289 1.45318604 29.24967957 C1.4553531 34.12950988 0.41331993 36.53648419 -3 40 C-3.66 39.67 -4.32 39.34 -5 39 C-4.99476318 38.19780029 -4.98952637 37.39560059 -4.98413086 36.5690918 C-4.96337103 32.94190247 -4.95034298 29.31472563 -4.9375 25.6875 C-4.92912109 24.42486328 -4.92074219 23.16222656 -4.91210938 21.86132812 C-4.90888672 20.65283203 -4.90566406 19.44433594 -4.90234375 18.19921875 C-4.89710693 17.08377686 -4.89187012 15.96833496 -4.88647461 14.8190918 C-4.87250746 11.91947938 -4.87250746 11.91947938 -6 9 C-5.0390625 6.9921875 -5.0390625 6.9921875 -3.625 4.875 C-3.16351563 4.17117188 -2.70203125 3.46734375 -2.2265625 2.7421875 C-1 1 -1 1 0 0 Z " fill="#CCCCCC" transform="translate(258,437)"/>
<path d="M0 0 C0.33 0.66 0.66 1.32 1 2 C0.67 2.66 0.34 3.32 0 4 C-0.77265418 10.81455658 -0.11870669 16.40432269 4 22 C7.83015434 25.99900105 11.94857393 29.69076457 17.62109375 30.265625 C18.55050781 30.26046875 19.47992188 30.2553125 20.4375 30.25 C21.36433594 30.25515625 22.29117187 30.2603125 23.24609375 30.265625 C26.16054176 29.98451512 28.34890497 29.21247903 31 28 C27.44983052 32.0963494 24.27047541 33.59953362 18.89453125 34.2578125 C13.09796023 34.55711909 8.72802692 33.40417938 4 30 C-1.28359849 25.0561451 -4.01952931 20.47464913 -4.375 13.1875 C-4.29550555 7.88521987 -2.67980578 4.52217225 0 0 Z " fill="#DBDBDB" transform="translate(388,444)"/>
<path d="M0 0 C0.66 0.33 1.32 0.66 2 1 C2.33533897 2.33283032 2.66836329 3.66624366 3 5 C4.15380351 6.87305856 4.15380351 6.87305856 5.625 8.6875 C6.16286133 9.38101562 6.70072266 10.07453125 7.25488281 10.7890625 C7.83077148 11.51867187 8.40666016 12.24828125 9 13 C10.18278792 14.52044742 11.36507657 16.04128335 12.546875 17.5625 C13.13146484 18.31144531 13.71605469 19.06039063 14.31835938 19.83203125 C16.66699151 22.85988453 18.96314557 25.92536628 21.25 29 C23.4832469 32.119543 23.4832469 32.119543 26 35 C26.04063832 36.66617115 26.042721 38.33388095 26 40 C25.01 40 24.02 40 23 40 C21.54882812 38.49389648 21.54882812 38.49389648 20.03125 36.37109375 C19.4647876 35.59008301 18.8983252 34.80907227 18.31469727 34.00439453 C17.71584717 33.15731934 17.11699707 32.31024414 16.5 31.4375 C15.2492129 29.69364093 13.99790381 27.95015615 12.74609375 26.20703125 C12.1207373 25.33127441 11.49538086 24.45551758 10.85107422 23.55322266 C9.13971249 21.19270815 7.38535156 18.87720025 5.59765625 16.57421875 C5.08332031 15.90398682 4.56898438 15.23375488 4.0390625 14.54321289 C3.07472019 13.29042891 2.0998427 12.04566515 1.11328125 10.81030273 C-0.94211386 8.10214942 -2.03264987 6.61113858 -1.84765625 3.1484375 C-1 1 -1 1 0 0 Z " fill="#ECECEC" transform="translate(303,437)"/>
<path d="M0 0 C2.80006484 1.40003242 2.85338306 3.12756574 4 6 C5.107168 7.63829115 6.27364309 9.23746839 7.484375 10.80078125 C8.51691406 12.14366211 8.51691406 12.14366211 9.5703125 13.51367188 C10.28960937 14.43728516 11.00890625 15.36089844 11.75 16.3125 C13.84763599 19.03059059 15.94465496 21.7491093 18.03710938 24.47119141 C19.2910804 26.08669289 20.56174921 27.68945985 21.85351562 29.27490234 C22.40201172 29.96148926 22.95050781 30.64807617 23.515625 31.35546875 C23.99805664 31.94352295 24.48048828 32.53157715 24.97753906 33.13745117 C26.28916599 35.52675438 26.18333818 37.31709371 26 40 C22.41377627 38.53501675 20.69615679 36.67697517 18.390625 33.59765625 C17.721521 32.71207031 17.05241699 31.82648438 16.36303711 30.9140625 C15.66573486 29.97304688 14.96843262 29.03203125 14.25 28.0625 C13.53787354 27.10988281 12.82574707 26.15726562 12.09204102 25.17578125 C10.68802405 23.29540998 9.2869746 21.41281865 7.88916016 19.52783203 C6.33069803 17.44249773 4.74908766 15.38344837 3.13671875 13.33984375 C2.41097656 12.40269531 1.68523437 11.46554687 0.9375 10.5 C0.32777344 9.7265625 -0.28195312 8.953125 -0.91015625 8.15625 C-2.32267433 5.36159058 -1.95676179 3.92538685 -1 1 C-0.67 0.67 -0.34 0.34 0 0 Z " fill="#EDEDED" transform="translate(437,437)"/>
<path d="M0 0 C0.66 0.33 1.32 0.66 2 1 C2.02934144 4.97915085 2.04691265 8.95827337 2.0625 12.9375 C2.07087891 14.05447266 2.07925781 15.17144531 2.08789062 16.32226562 C2.13771 33.31067303 2.13771 33.31067303 -1.0625 38.0625 C-1.701875 38.701875 -2.34125 39.34125 -3 40 C-3.66 39.67 -4.32 39.34 -5 39 C-4.95576334 34.24875389 -4.88584526 29.49882618 -4.79248047 24.74829102 C-4.76431814 23.13348911 -4.74308 21.51855057 -4.72900391 19.90356445 C-4.70750742 17.57692763 -4.66082789 15.25192523 -4.609375 12.92578125 C-4.60814636 12.20787918 -4.60691772 11.48997711 -4.60565186 10.75032043 C-4.46540259 5.91147022 -3.37558083 3.44909087 0 0 Z " fill="#CCCCCC" transform="translate(191,437)"/>
<path d="M0 0 C10.23 0 20.46 0 31 0 C31 0.99 31 1.98 31 3 C30.34 2.67 29.68 2.34 29 2 C27.12943209 1.7724985 25.25314042 1.59037189 23.375 1.4375 C22.37210938 1.35371094 21.36921875 1.26992188 20.3359375 1.18359375 C19.56507813 1.12300781 18.79421875 1.06242187 18 1 C18.02094727 2.00377686 18.04189453 3.00755371 18.06347656 4.04174805 C18.13606694 7.77825566 18.18186811 11.51470137 18.21972656 15.25170898 C18.23979892 16.86672458 18.2670633 18.48166789 18.30175781 20.09643555 C18.35047215 22.42254501 18.37301154 24.74769093 18.390625 27.07421875 C18.41127014 27.79212082 18.43191528 28.51002289 18.45318604 29.24967957 C18.4553531 34.12950988 17.41331993 36.53648419 14 40 C13.34 39.67 12.68 39.34 12 39 C12.495 38.505 12.495 38.505 13 38 C13.14761028 35.50451122 13.23494119 33.03310114 13.28125 30.53515625 C13.29965942 29.78664902 13.31806885 29.03814178 13.33703613 28.26695251 C13.39596125 25.86555051 13.44869349 23.46407616 13.5 21.0625 C13.56755296 17.90739778 13.64125545 14.75252813 13.71875 11.59765625 C13.73232544 10.86740738 13.74590088 10.13715851 13.7598877 9.38478088 C13.88722597 4.22554807 13.88722597 4.22554807 15 2 C10.05 2 5.1 2 0 2 C0 1.34 0 0.68 0 0 Z " fill="#D8D8D8" transform="translate(119,437)"/>
<path d="M0 0 C0.93730088 2.81190265 0.95533309 4.65883693 0.75 7.6875 C0.71056947 12.98104868 2.81727347 16.86321876 6 21 C11.12244286 25.84856968 15.41901272 28.14924996 22.5 28.125 C23.2528125 28.12757813 24.005625 28.13015625 24.78125 28.1328125 C26.973535 28.00158417 28.89319137 27.60331338 31 27 C28.05956031 30.40471964 25.2263921 31.7036676 20.76953125 32.296875 C14.02265101 32.67344506 9.40390605 31.0197088 4 27 C-0.37955539 22.62044461 -3.1092344 17.24549154 -3.375 11 C-3.22814797 6.82287551 -1.85584214 3.71168428 0 0 Z " fill="#DDDDDD" transform="translate(36,446)"/>
<path d="M0 0 C3.85227737 2.10016959 6.42723721 4.00316902 8.75 7.8125 C9.3275 8.699375 9.905 9.58625 10.5 10.5 C12.48156185 15.75113889 12.83081951 20.91159916 10.84765625 26.234375 C9.89920662 28.13802478 8.83426701 29.98279941 7.75 31.8125 C7.42 31.1525 7.09 30.4925 6.75 29.8125 C7.08 29.1525 7.41 28.4925 7.75 27.8125 C8.59682479 21.41292405 7.8581088 16.3682976 4.44921875 10.859375 C0.83267028 6.50288903 -3.91363015 3.59128995 -9.25 1.8125 C-11.14470816 1.7439505 -13.0416834 1.72769628 -14.9375 1.75 C-15.93136719 1.75902344 -16.92523438 1.76804687 -17.94921875 1.77734375 C-18.70847656 1.78894531 -19.46773437 1.80054688 -20.25 1.8125 C-13.69364091 -3.387371 -7.39463153 -3.48432416 0 0 Z " fill="#DEDEDE" transform="translate(63.25,438.1875)"/>
<path d="M0 0 C5.2757553 2.97875647 9.02557089 6.90212242 11.75 12.3125 C12.11328125 15.46875 12.11328125 15.46875 12.0625 18.8125 C12.05863281 19.9159375 12.05476563 21.019375 12.05078125 22.15625 C11.75520718 25.25785844 11.0640157 27.50647443 9.75 30.3125 C8.9075741 27.35042184 8.63685542 24.63197154 8.5 21.5625 C7.88383289 15.31806015 5.7114203 11.00656985 1.0625 6.77734375 C-4.48881276 2.81046817 -10.59111574 2.05607541 -17.25 1.3125 C-14.47835625 -4.23078751 -4.60406238 -2.16661759 0 0 Z " fill="#E6E6E6" transform="translate(413.25,437.6875)"/>
<path d="M0 0 C3.17881315 4.76821972 5.38375475 10.03018764 7.76000977 15.23193359 C8.37656464 16.57345573 9.00023946 17.9117292 9.63110352 19.24658203 C10.54575913 21.1830776 11.43705388 23.12890899 12.32421875 25.078125 C12.86135498 26.23731445 13.39849121 27.39650391 13.9519043 28.59082031 C15.1516261 32.49319983 14.85981259 35.04731601 14 39 C10.8289508 36.36300973 9.4363728 33.01582896 7.828125 29.3203125 C7.54144958 28.67053436 7.25477417 28.02075623 6.95941162 27.35128784 C6.35739346 25.97947563 5.75918417 24.60598639 5.16455078 23.23095703 C4.25338602 21.13279706 3.32080249 19.04506995 2.38671875 16.95703125 C1.80335175 15.62037384 1.22127669 14.28315169 0.640625 12.9453125 C0.36051575 12.32431671 0.08040649 11.70332092 -0.20819092 11.06350708 C-1.79605528 7.32248845 -2.32860333 4.88683351 -1 1 C-0.67 0.67 -0.34 0.34 0 0 Z " fill="#EDEDED" transform="translate(227,438)"/>
<path d="M0 0 C0.33 0 0.66 0 1 0 C1 19.8 1 39.6 1 60 C2.98 60 4.96 60 7 60 C7 40.2 7 20.4 7 0 C7.33 0 7.66 0 8 0 C8 19.8 8 39.6 8 60 C8.66 60.33 9.32 60.66 10 61 C9.34 61 8.68 61 8 61 C8 61.99 8 62.98 8 64 C5.69 64 3.38 64 1 64 C1 63.01 1 62.02 1 61 C-0.32 60.67 -1.64 60.34 -3 60 C-2.01 60 -1.02 60 0 60 C0 40.2 0 20.4 0 0 Z " fill="#5E5E5E" transform="translate(246,84)"/>
<path d="M0 0 C0.66 0.33 1.32 0.66 2 1 C1.67 1.33 1.34 1.66 1 2 C0.8894166 4.47223377 0.83840524 6.92126117 0.82421875 9.39453125 C0.80101523 10.92253974 0.77689767 12.45053457 0.75195312 13.97851562 C0.71685764 16.39470474 0.68751171 18.81039389 0.67407227 21.22680664 C0.65858352 23.55416977 0.61836434 25.88005823 0.57421875 28.20703125 C0.57612717 28.92695755 0.57803558 29.64688385 0.58000183 30.3886261 C0.49335448 33.94667041 0.25213647 35.69198774 -2.03588867 38.48706055 C-2.68404541 38.98633057 -3.33220215 39.48560059 -4 40 C-4.66 39.67 -5.32 39.34 -6 39 C-5.505 38.505 -5.505 38.505 -5 38 C-4.8894166 35.52776623 -4.83840524 33.07873883 -4.82421875 30.60546875 C-4.80101523 29.07746026 -4.77689767 27.54946543 -4.75195312 26.02148438 C-4.71685764 23.60529526 -4.68751171 21.18960611 -4.67407227 18.77319336 C-4.65858352 16.44583023 -4.61836434 14.11994177 -4.57421875 11.79296875 C-4.57612717 11.07304245 -4.57803558 10.35311615 -4.58000183 9.6113739 C-4.49335448 6.05332959 -4.25213647 4.30801226 -1.96411133 1.51293945 C-1.31595459 1.01366943 -0.66779785 0.51439941 0 0 Z " fill="#F4F4F4" transform="translate(376,437)"/>
<path d="M0 0 C0.33 0 0.66 0 1 0 C2 5 2 5 2 19 C-17.8 19 -37.6 19 -58 19 C-58 22.96 -58 26.92 -58 31 C-58.33 31 -58.66 31 -59 31 C-59 29.02 -59 27.04 -59 25 C-60.32 25 -61.64 25 -63 25 C-63 22.69 -63 20.38 -63 18 C-61.68 18 -60.36 18 -59 18 C-58.67 16.68 -58.34 15.36 -58 14 C-58 15.32 -58 16.64 -58 18 C-38.53 18 -19.06 18 1 18 C0.505 13.545 0.505 13.545 0 9 C-0.10330915 5.98750529 -0.04787308 3.01600414 0 0 Z " fill="#434343" transform="translate(373,186)"/>
<path d="M0 0 C0.33 0 0.66 0 1 0 C0.67 5.61 0.34 11.22 0 17 C19.47 17 38.94 17 59 17 C59.33 14.36 59.66 11.72 60 9 C60.33 9 60.66 9 61 9 C61 11.64 61 14.28 61 17 C61.66 17 62.32 17 63 17 C63 19.31 63 21.62 63 24 C61.68 24 60.36 24 59 24 C59 22.02 59 20.04 59 18 C39.2 18 19.4 18 -1 18 C-1 5 -1 5 0 0 Z " fill="#404040" transform="translate(127,187)"/>
<path d="M0 0 C2.31 0 4.62 0 7 0 C7 1.32 7 2.64 7 4 C8.65 4 10.3 4 12 4 C12 4.33 12 4.66 12 5 C10.35 5 8.7 5 7 5 C7 24.8 7 44.6 7 65 C8.65 65 10.3 65 12 65 C12 65.33 12 65.66 12 66 C10.02 66 8.04 66 6 66 C6 45.87 6 25.74 6 5 C4.02 5 2.04 5 0 5 C0 3.35 0 1.7 0 0 Z " fill="#363636" transform="translate(247,267)"/>
<path d="M0 0 C3.35289282 0.28739081 5.03956604 1.02813585 7.8125 3 C10.39912606 6.54737289 10.74231528 8.54474533 10.484375 12.84375 C9.67606665 16.44202589 7.96460633 17.93766516 5 20 C1.6875 20.8125 1.6875 20.8125 -1 21 C-0.175 20.195625 0.65 19.39125 1.5 18.5625 C4.36289605 15.15775639 4.47118742 12.48372412 4.2734375 8.1484375 C3.87937083 5.01680522 3.87937083 5.01680522 3 2 C2.01 1.67 1.02 1.34 0 1 C0 0.67 0 0.34 0 0 Z " fill="#E3E3E3" transform="translate(203,437)"/>
<path d="M0 0 C1.18916016 0.02707031 1.18916016 0.02707031 2.40234375 0.0546875 C4.35208348 0.10166918 6.30119878 0.17340956 8.25 0.25 C7.92 2.23 7.59 4.21 7.25 6.25 C6.59 4.93 5.93 3.61 5.25 2.25 C0.96 2.25 -3.33 2.25 -7.75 2.25 C-8.08 7.53 -8.41 12.81 -8.75 18.25 C-9.41 18.25 -10.07 18.25 -10.75 18.25 C-12.95257572 14.94613642 -13.07249903 13.68182123 -13.125 9.8125 C-13.16753906 8.39130859 -13.16753906 8.39130859 -13.2109375 6.94140625 C-12.75 4.25 -12.75 4.25 -11.2734375 1.91796875 C-7.56334264 -0.53436949 -4.34027912 -0.18714305 0 0 Z " fill="#E5E5E5" transform="translate(281.75,436.75)"/>
<path d="M0 0 C1.18916016 0.02707031 1.18916016 0.02707031 2.40234375 0.0546875 C4.35208348 0.10166918 6.30119878 0.17340956 8.25 0.25 C7.92 2.23 7.59 4.21 7.25 6.25 C6.59 4.93 5.93 3.61 5.25 2.25 C0.96 2.25 -3.33 2.25 -7.75 2.25 C-8.08 7.53 -8.41 12.81 -8.75 18.25 C-9.41 18.25 -10.07 18.25 -10.75 18.25 C-12.95257572 14.94613642 -13.07249903 13.68182123 -13.125 9.8125 C-13.16753906 8.39130859 -13.16753906 8.39130859 -13.2109375 6.94140625 C-12.75 4.25 -12.75 4.25 -11.2734375 1.91796875 C-7.56334264 -0.53436949 -4.34027912 -0.18714305 0 0 Z " fill="#E5E5E5" transform="translate(169.75,436.75)"/>
<path d="M0 0 C0.42023438 0.57878906 0.84046875 1.15757812 1.2734375 1.75390625 C3.49531902 4.64436298 5.97778375 7.25068613 8.4765625 9.90234375 C10.20653197 12.28437863 10.62762786 14.10656785 11 17 C9.02 17.99 9.02 17.99 7 19 C6.92007813 18.43152344 6.84015625 17.86304688 6.7578125 17.27734375 C5.48693713 13.45816675 2.42396461 11.10861532 -0.3828125 8.31640625 C-2 6 -2 6 -1.8046875 3.27734375 C-1 1 -1 1 0 0 Z " fill="#E9E9E9" transform="translate(201,458)"/>
<path d="M0 0 C0.33 0 0.66 0 1 0 C1 19.8 1 39.6 1 60 C1.66 60.33 2.32 60.66 3 61 C2.34 61 1.68 61 1 61 C1 61.99 1 62.98 1 64 C-1.31 64 -3.62 64 -6 64 C-6 63.67 -6 63.34 -6 63 C-4.02 63 -2.04 63 0 63 C-0.495 61.515 -0.495 61.515 -1 60 C-1.06076934 58.05147104 -1.05850454 56.10074076 -1.02172852 54.15161133 C-1.00163223 52.9505928 -0.98153595 51.74957428 -0.96083069 50.51216125 C-0.93379562 49.21521835 -0.90676056 47.91827545 -0.87890625 46.58203125 C-0.85459886 45.24111235 -0.83075561 43.90018496 -0.80735779 42.55924988 C-0.74457831 39.03282999 -0.67549444 35.50656069 -0.60510254 31.98028564 C-0.53436357 28.38080696 -0.46957992 24.78122166 -0.40429688 21.18164062 C-0.27536372 14.12097794 -0.13977087 7.06045713 0 0 Z " fill="#373737" transform="translate(253,84)"/>
<path d="M0 0 C0.66 0.33 1.32 0.66 2 1 C1.91277063 3.41835897 1.80588627 5.83313316 1.6875 8.25 C1.66494141 8.93191406 1.64238281 9.61382812 1.61914062 10.31640625 C1.39833396 14.45151296 0.90407 16.97914434 -2 20 C-2.66 19.67 -3.32 19.34 -4 19 C-3.91277063 16.58164103 -3.80588627 14.16686684 -3.6875 11.75 C-3.66494141 11.06808594 -3.64238281 10.38617188 -3.61914062 9.68359375 C-3.39833396 5.54848704 -2.90407 3.02085566 0 0 Z " fill="#E6E6E6" transform="translate(272,457)"/>
<path d="M0 0 C0.66 0.33 1.32 0.66 2 1 C1.91277063 3.41835897 1.80588627 5.83313316 1.6875 8.25 C1.66494141 8.93191406 1.64238281 9.61382812 1.61914062 10.31640625 C1.39833396 14.45151296 0.90407 16.97914434 -2 20 C-2.66 19.67 -3.32 19.34 -4 19 C-3.91277063 16.58164103 -3.80588627 14.16686684 -3.6875 11.75 C-3.66494141 11.06808594 -3.64238281 10.38617188 -3.61914062 9.68359375 C-3.39833396 5.54848704 -2.90407 3.02085566 0 0 Z " fill="#E6E6E6" transform="translate(160,457)"/>
<path d="M0 0 C2 2 2 2 2.13525391 5.07275391 C2.08288574 6.36101074 2.03051758 7.64926758 1.9765625 8.9765625 C1.95153656 9.66181 1.92651062 10.3470575 1.90072632 11.05307007 C1.81847691 13.2442131 1.72190952 15.43446111 1.625 17.625 C1.56676528 19.1093383 1.50946189 20.59371346 1.453125 22.078125 C1.31289242 25.71923974 1.15981249 29.3596862 1 33 C2.32 33 3.64 33 5 33 C5 33.66 5 34.32 5 35 C1.7 35 -1.6 35 -5 35 C-5 34.34 -5 33.68 -5 33 C-3.515 32.505 -3.515 32.505 -2 32 C-0.55037817 29.10075634 -0.77873519 26.47699645 -0.68359375 23.2421875 C-0.66281265 22.57913605 -0.64203156 21.91608459 -0.62062073 21.23294067 C-0.55520769 19.11373306 -0.49627895 16.994401 -0.4375 14.875 C-0.39430691 13.43878919 -0.35069236 12.00259098 -0.30664062 10.56640625 C-0.19953501 7.04440406 -0.09824425 3.52226175 0 0 Z " fill="#5D5D5D" transform="translate(301,443)"/>
<path d="M0 0 C2.45409801 3.68114701 2.16723151 5.27039848 1.9765625 9.63671875 C1.89921875 11.58481445 1.89921875 11.58481445 1.8203125 13.57226562 C1.75543549 14.94402118 1.69032837 16.31576587 1.625 17.6875 C1.56674379 19.07092326 1.50944085 20.45438702 1.453125 21.83789062 C1.31147124 25.22577631 1.16003846 28.61294104 1 32 C2.32 32 3.64 32 5 32 C5 32.66 5 33.32 5 34 C1.7 34 -1.6 34 -5 34 C-5 33.34 -5 32.68 -5 32 C-4.01 31.67 -3.02 31.34 -2 31 C-0.57732138 28.15464275 -0.78028131 25.63781448 -0.68359375 22.4609375 C-0.64169922 21.15898437 -0.59980469 19.85703125 -0.55664062 18.515625 C-0.51682701 17.13541955 -0.47711478 15.75521117 -0.4375 14.375 C-0.39430593 12.98696585 -0.35069135 11.59894472 -0.30664062 10.2109375 C-0.20028 6.80739744 -0.09825286 3.40378222 0 0 Z " fill="#5D5D5D" transform="translate(225,444)"/>
<path d="M0 0 C2 2 2 2 2.13525391 5.07275391 C2.08288574 6.36101074 2.03051758 7.64926758 1.9765625 8.9765625 C1.95153656 9.66181 1.92651062 10.3470575 1.90072632 11.05307007 C1.81847691 13.2442131 1.72190952 15.43446111 1.625 17.625 C1.56676528 19.1093383 1.50946189 20.59371346 1.453125 22.078125 C1.31289242 25.71923974 1.15981249 29.3596862 1 33 C2.65 33 4.3 33 6 33 C6 33.66 6 34.32 6 35 C2.7 35 -0.6 35 -4 35 C-4 34.34 -4 33.68 -4 33 C-3.01 32.34 -2.02 31.68 -1 31 C-0.48745872 27.7998894 -0.48745872 27.7998894 -0.48828125 24.0234375 C-0.47033005 23.33819 -0.45237885 22.6529425 -0.43388367 21.94692993 C-0.37966292 19.75634941 -0.34584947 17.5659881 -0.3125 15.375 C-0.27933706 13.89059441 -0.24484835 12.40621779 -0.20898438 10.921875 C-0.12393185 7.28146088 -0.05717644 3.64097056 0 0 Z " fill="#5D5D5D" transform="translate(435,443)"/>
<path d="M0 0 C0.33 0.66 0.66 1.32 1 2 C0.67 2.66 0.34 3.32 0 4 C-7.92 4 -15.84 4 -24 4 C-23.67 3.34 -23.34 2.68 -23 2 C-22.40985107 1.97494385 -21.81970215 1.9498877 -21.21166992 1.92407227 C-18.53673186 1.80799948 -15.8621362 1.68532428 -13.1875 1.5625 C-12.25873047 1.52318359 -11.32996094 1.48386719 -10.37304688 1.44335938 C-9.48037109 1.40146484 -8.58769531 1.35957031 -7.66796875 1.31640625 C-6.84578857 1.27974854 -6.0236084 1.24309082 -5.17651367 1.20532227 C-2.82094822 1.06572228 -2.82094822 1.06572228 0 0 Z " fill="#606060" transform="translate(291,474)"/>
<path d="M0 0 C0.33 0.66 0.66 1.32 1 2 C0.67 2.66 0.34 3.32 0 4 C-7.92 4 -15.84 4 -24 4 C-23.67 3.34 -23.34 2.68 -23 2 C-22.40985107 1.97494385 -21.81970215 1.9498877 -21.21166992 1.92407227 C-18.53673186 1.80799948 -15.8621362 1.68532428 -13.1875 1.5625 C-12.25873047 1.52318359 -11.32996094 1.48386719 -10.37304688 1.44335938 C-9.48037109 1.40146484 -8.58769531 1.35957031 -7.66796875 1.31640625 C-6.84578857 1.27974854 -6.0236084 1.24309082 -5.17651367 1.20532227 C-2.82094822 1.06572228 -2.82094822 1.06572228 0 0 Z " fill="#606060" transform="translate(179,474)"/>
<path d="M0 0 C3.3 0 6.6 0 10 0 C8.02 0.99 8.02 0.99 6 2 C5.67 8.27 5.34 14.54 5 21 C4.01 20.01 3.02 19.02 2 18 C-1.12549017 17.74951364 -1.12549017 17.74951364 -4 18 C-3.67 17.34 -3.34 16.68 -3 16 C-1.02 16 0.96 16 3 16 C3.33 11.05 3.66 6.1 4 1 C2.68 0.67 1.36 0.34 0 0 Z " fill="#616161" transform="translate(458,437)"/>
<path d="M0 0 C2.97 0 5.94 0 9 0 C8.51917969 0.47953125 8.03835938 0.9590625 7.54296875 1.453125 C5.31687822 5.1275833 5.43506856 8.5266376 5.3125 12.75 C5.27833984 13.54277344 5.24417969 14.33554687 5.20898438 15.15234375 C5.12680896 17.10107504 5.06171955 19.05051362 5 21 C4.01 19.68 3.02 18.36 2 17 C2.66 17 3.32 17 4 17 C4 11.72 4 6.44 4 1 C2.68 0.67 1.36 0.34 0 0 Z " fill="#656565" transform="translate(324,437)"/>
<path d="M0 0 C7.92 0 15.84 0 24 0 C24 0.33 24 0.66 24 1 C22.19402344 1.09087891 22.19402344 1.09087891 20.3515625 1.18359375 C18.77602923 1.26799732 17.20050904 1.35264541 15.625 1.4375 C14.8309375 1.47681641 14.036875 1.51613281 13.21875 1.55664062 C8.97398779 1.68893404 8.97398779 1.68893404 5 3 C3.32345271 2.72057545 1.65391846 2.39171753 0 2 C0 1.34 0 0.68 0 0 Z " fill="#1B1B1B" transform="translate(266,436)"/>
<path d="M0 0 C7.92 0 15.84 0 24 0 C24 0.33 24 0.66 24 1 C22.19402344 1.09087891 22.19402344 1.09087891 20.3515625 1.18359375 C18.77602923 1.26799732 17.20050904 1.35264541 15.625 1.4375 C14.8309375 1.47681641 14.036875 1.51613281 13.21875 1.55664062 C8.97398779 1.68893404 8.97398779 1.68893404 5 3 C3.32345271 2.72057545 1.65391846 2.39171753 0 2 C0 1.34 0 0.68 0 0 Z " fill="#1B1B1B" transform="translate(154,436)"/>
<path d="M0 0 C1.98 0 3.96 0 6 0 C6 1.65 6 3.3 6 5 C4.02 5 2.04 5 0 5 C0 3.35 0 1.7 0 0 Z " fill="#6A6A6A" transform="translate(247,267)"/>
<path d="M0 0 C1.32 0 2.64 0 4 0 C4 1.98 4 3.96 4 6 C2.68 6 1.36 6 0 6 C0 4.02 0 2.04 0 0 Z " fill="#6F6F6F" transform="translate(310,205)"/>
<path d="M0 0 C0 0.66 0 1.32 0 2 C-3.3 2 -6.6 2 -10 2 C-10 1.34 -10 0.68 -10 0 C-6.7169902 -1.6415049 -3.57454967 -0.51888624 0 0 Z " fill="#373737" transform="translate(441,476)"/>
<path d="M0 0 C0 0.66 0 1.32 0 2 C-3.3 2 -6.6 2 -10 2 C-10 1.34 -10 0.68 -10 0 C-6.30581799 -1.231394 -3.7943739 -0.64432764 0 0 Z " fill="#373737" transform="translate(306,476)"/>
<path d="M0 0 C0 0.66 0 1.32 0 2 C-3.3 2 -6.6 2 -10 2 C-10 1.34 -10 0.68 -10 0 C-6.30581799 -1.231394 -3.7943739 -0.64432764 0 0 Z " fill="#383838" transform="translate(230,476)"/>
<path d="M0 0 C4.95 0 9.9 0 15 0 C14.67 1.98 14.34 3.96 14 6 C13.79632813 5.35546875 13.59265625 4.7109375 13.3828125 4.046875 C12.1332065 1.68846128 12.1332065 1.68846128 9.1796875 1.390625 C8.08914063 1.34421875 6.99859375 1.2978125 5.875 1.25 C4.23144531 1.16492188 4.23144531 1.16492188 2.5546875 1.078125 C1.71164062 1.05234375 0.86859375 1.0265625 0 1 C0 0.67 0 0.34 0 0 Z " fill="#9C9C9C" transform="translate(275,437)"/>
<path d="M0 0 C4.95 0 9.9 0 15 0 C14.67 1.98 14.34 3.96 14 6 C13.79632813 5.35546875 13.59265625 4.7109375 13.3828125 4.046875 C12.1332065 1.68846128 12.1332065 1.68846128 9.1796875 1.390625 C8.08914062 1.34421875 6.99859375 1.2978125 5.875 1.25 C4.23144531 1.16492188 4.23144531 1.16492188 2.5546875 1.078125 C1.71164063 1.05234375 0.86859375 1.0265625 0 1 C0 0.67 0 0.34 0 0 Z " fill="#9C9C9C" transform="translate(163,437)"/>
<path d="M0 0 C6.11774896 -0.49940808 9.02495953 0.75099398 14 4 C14 4.66 14 5.32 14 6 C10 4 10 4 8.125 2.9375 C5.45925448 1.7614358 2.87568173 1.39213842 0 1 C0 0.67 0 0.34 0 0 Z " fill="#838383" transform="translate(347,436)"/>
<path d="M0 0 C0 0.66 0 1.32 0 2 C-3.3 2 -6.6 2 -10 2 C-7.85732894 -2.28534211 -3.95706306 -0.79141261 0 0 Z " fill="#3D3D3D" transform="translate(379,476)"/>
<path d="M0 0 C0 0.66 0 1.32 0 2 C-3.3 2 -6.6 2 -10 2 C-7.85732894 -2.28534211 -3.95706306 -0.79141261 0 0 Z " fill="#363636" transform="translate(262,476)"/>
<path d="M0 0 C0 0.66 0 1.32 0 2 C-3.3 2 -6.6 2 -10 2 C-7.85732894 -2.28534211 -3.95706306 -0.79141261 0 0 Z " fill="#353535" transform="translate(195,476)"/>
<path d="M0 0 C0 0.66 0 1.32 0 2 C-3.3 2 -6.6 2 -10 2 C-7.85732894 -2.28534211 -3.95706306 -0.79141261 0 0 Z " fill="#3B3B3B" transform="translate(140,476)"/>
<path d="M0 0 C3.3 0 6.6 0 10 0 C8.02 0.99 8.02 0.99 6 2 C5.67 2.99 5.34 3.98 5 5 C4.67 3.68 4.34 2.36 4 1 C2.68 0.67 1.36 0.34 0 0 Z " fill="#555555" transform="translate(458,437)"/>
<path d="M0 0 C3.3 0 6.6 0 10 0 C9 2 9 2 7.25 2.6875 C4.60760177 3.05449975 2.57327078 2.64331769 0 2 C0 1.34 0 0.68 0 0 Z " fill="#303030" transform="translate(369,436)"/>
<path d="M0 0 C0.99 0 1.98 0 3 0 C3 1.98 3 3.96 3 6 C2.01 6 1.02 6 0 6 C0 4.02 0 2.04 0 0 Z " fill="#6E6E6E" transform="translate(187,205)"/>
</svg>
